HIERARCHY
ROOT Model_Hips
{
	OFFSET 0.000000 96.915077 0.000000
	CHANNELS 6 Xposition Yposition Zposition Xrotation Yrotation Zrotation
	JOINT Model_Spine
	{
		OFFSET 0.000000 11.137703 -1.289900
		CHANNELS 3 Xrotation Yrotation Zrotation
		JOINT Model_Spine1
		{
			OFFSET 0.000000 12.993942 -1.504922
			CHANNELS 3 Xrotation Yrotation Zrotation
			JOINT Model_Spine2
			{
				OFFSET 0.000000 14.850220 -1.719911
				CHANNELS 3 Xrotation Yrotation Zrotation
				JOINT Model_Neck
				{
					OFFSET 0.000000 16.706543 -1.934903
					CHANNELS 3 Xrotation Yrotation Zrotation
					JOINT Model_Head
					{
						OFFSET 0.000000 10.471298 2.002100
						CHANNELS 3 Xrotation Yrotation Zrotation
						JOINT Model_HeadTop_End
						{
							OFFSET 0.000000 20.842606 3.985100
							CHANNELS 3 Xrotation Yrotation Zrotation
							End Site
							{
								OFFSET 0.000000 21.220154 0.000000
							}
						}
					}
				}
				JOINT Model_LeftShoulder
				{
					OFFSET 7.008500 14.768600 -1.919946
					CHANNELS 3 Xrotation Yrotation Zrotation
					JOINT Model_LeftArm
					{
						OFFSET 14.126271 -3.718048 0.029937
						CHANNELS 3 Xrotation Yrotation Zrotation
						JOINT Model_LeftForeArm
						{
							OFFSET 28.282801 0.000000 0.000000
							CHANNELS 3 Xrotation Yrotation Zrotation
							JOINT Model_LeftHand
							{
								OFFSET 26.204689 0.000000 0.000000
								CHANNELS 3 Xrotation Yrotation Zrotation
								End Site
								{
									OFFSET 26.204704 0.000000 0.000000
								}
							}
						}
					}
				}
				JOINT Model_RightShoulder
				{
					OFFSET -7.008500 14.768555 -1.949840
					CHANNELS 3 Xrotation Yrotation Zrotation
					JOINT Model_RightArm
					{
						OFFSET -14.126281 -3.718018 -0.029932
						CHANNELS 3 Xrotation Yrotation Zrotation
						JOINT Model_RightForeArm
						{
							OFFSET -28.283798 0.000000 -0.000001
							CHANNELS 3 Xrotation Yrotation Zrotation
							JOINT Model_RightHand
							{
								OFFSET -26.204193 0.000000 -0.000001
								CHANNELS 3 Xrotation Yrotation Zrotation
								End Site
								{
									OFFSET -26.204208 0.000000 -0.000001
								}
							}
						}
					}
				}
			}
		}
	}
	JOINT Model_LeftUpLeg
	{
		OFFSET 8.327700 -6.193199 -0.402800
		CHANNELS 3 Xrotation Yrotation Zrotation
		JOINT Model_LeftLeg
		{
			OFFSET 0.735802 -42.108742 -0.610721
			CHANNELS 3 Xrotation Yrotation Zrotation
			JOINT Model_LeftFoot
			{
				OFFSET -0.735806 -36.833748 -0.172876
				CHANNELS 3 Xrotation Yrotation Zrotation
				JOINT Model_LeftToeBase
				{
					OFFSET -0.565857 -11.977769 16.297714
					CHANNELS 3 Xrotation Yrotation Zrotation
					JOINT Model_LeftToe_End
					{
						OFFSET -0.111712 -0.312793 7.857784
						CHANNELS 3 Xrotation Yrotation Zrotation
						End Site
						{
							OFFSET -0.111712 -0.312793 7.857784
						}
					}
				}
			}
		}
	}
	JOINT Model_RightUpLeg
	{
		OFFSET -8.327700 -6.193199 -0.516500
		CHANNELS 3 Xrotation Yrotation Zrotation
		JOINT Model_RightLeg
		{
			OFFSET -0.735785 -42.108738 -0.434061
			CHANNELS 3 Xrotation Yrotation Zrotation
			JOINT Model_RightFoot
			{
				OFFSET 0.735776 -36.833748 -0.021630
				CHANNELS 3 Xrotation Yrotation Zrotation
				JOINT Model_RightToeBase
				{
					OFFSET 0.565817 -11.977745 15.903093
					CHANNELS 3 Xrotation Yrotation Zrotation
					JOINT Model_RightToe_End
					{
						OFFSET 0.111702 -0.312791 7.811342
						CHANNELS 3 Xrotation Yrotation Zrotation
						End Site
						{
							OFFSET 0.111702 -0.312791 7.811342
						}
					}
				}
			}
		}
	}
}
MOTION
Frames: 6
Frame Time: 0.016667
225.813583 94.799141 -70.199028 -175.995137 3.429184 184.555618 10.571633 -9.662115 -2.614009 1.194495 -1.595564 -0.204486 1.206713 -1.588943 -0.176214 0.671181 -2.390319 -1.006764 -4.238996 -3.128912 -1.167802 -0.000000 -0.000001 0.000000 0.872842 3.414901 -14.465062 0.231636 -23.200754 -19.006791 0.000022 -128.432186 0.000003 0.000001 -0.000001 -0.000001 -0.031805 10.393242 19.783624 -12.568227 -25.788419 59.151911 0.000001 6.684296 0.000011 -0.000002 0.000001 -0.000000 13.154355 -1.057880 -11.023339 7.877233 4.638075 1.675044 -15.175101 3.351321 3.444065 -4.971999 -0.000000 -0.000001 0.000001 -0.000001 -0.000000 -28.005386 4.319933 -7.251651 22.389661 -8.070161 -1.812022 -16.322344 -12.418918 11.182585 20.558902 0.000006 0.000003 0.000001 -0.000000 0.000001 
226.039307 94.598999 -71.757477 -176.040394 3.065667 184.710295 10.562178 -9.690561 -2.639726 1.240085 -1.599260 -0.166653 1.252762 -1.592304 -0.138664 0.652067 -2.414026 -1.024392 -4.258875 -3.151197 -1.186747 0.000000 0.000001 -0.000000 0.900217 3.668612 -14.727998 2.290170 -22.623779 -19.951252 0.000004 -127.693679 0.000002 -0.000001 0.000000 -0.000003 -0.023593 10.265534 19.833413 -12.759234 -25.934660 59.267976 0.000015 6.275673 0.000004 -0.000002 0.000001 -0.000001 14.102038 -0.888534 -10.947705 8.122964 3.842936 1.646374 -15.693497 3.361669 3.323475 -5.358873 0.000002 -0.000001 0.000000 -0.000001 -0.000000 -27.543752 4.315933 -7.441965 20.663315 -8.295184 -1.266133 -14.096288 -8.247902 9.692615 15.539917 -0.000006 0.000000 0.000000 0.000001 -0.000000 
226.279037 94.409927 -73.350891 -176.004167 2.594634 184.754199 10.538663 -9.749543 -2.500268 1.302975 -1.612621 -0.119492 1.315719 -1.605337 -0.091833 0.621601 -2.431827 -1.049173 -4.290020 -3.166796 -1.212048 -0.000000 -0.000001 -0.000000 0.929221 3.927912 -14.989513 4.304748 -21.932043 -21.130336 0.000024 -126.910625 0.000008 0.000000 -0.000002 -0.000002 -0.015269 10.114976 19.918978 -13.039002 -25.956052 59.255600 0.000002 5.904266 -0.000011 0.000001 -0.000000 -0.000000 14.759482 -0.617819 -10.706846 9.202625 3.033340 1.618142 -16.475839 3.358303 3.207846 -5.959451 0.000001 0.000001 0.000000 -0.000000 -0.000000 -26.650579 4.322154 -7.585181 18.779863 -8.632808 -0.828430 -10.023925 -4.809362 8.256270 10.643131 -0.000006 -0.000001 0.000001 -0.000001 -0.000000 
226.530640 94.245705 -74.982628 -175.907834 2.005450 184.657866 10.495206 -9.814952 -2.180790 1.378476 -1.631486 -0.062681 1.390783 -1.623958 -0.035450 0.593683 -2.448413 -1.072096 -4.318390 -3.181150 -1.235264 -0.000000 0.000001 -0.000000 0.957705 4.173784 -15.232582 6.305793 -21.133107 -22.559519 0.000028 -126.052070 0.000019 -0.000000 0.000000 -0.000001 -0.007199 9.951106 20.036737 -13.373583 -25.866855 59.119604 0.000020 5.583952 -0.000006 0.000001 -0.000001 -0.000000 15.226039 -0.258936 -10.253898 10.841015 2.209687 1.592047 -17.361999 3.345397 3.138659 -6.907122 0.000002 -0.000001 0.000000 -0.000001 -0.000000 -25.321420 4.312327 -7.686413 16.684339 -9.018877 -0.466441 -4.699615 -2.204423 7.114854 6.481315 -0.000003 -0.000003 0.000001 0.000000 0.000000 
226.793259 94.118263 -76.663757 -175.796365 1.330969 184.401857 10.427931 -9.845485 -1.703159 1.458071 -1.647531 0.006514 1.469456 -1.639854 0.033147 0.582522 -2.469364 -1.082792 -4.329653 -3.200751 -1.246744 0.000000 -0.000001 0.000000 0.983415 4.392474 -15.439383 8.299825 -20.259232 -24.238934 0.000007 -125.082129 -0.000012 -0.000005 -0.000001 -0.000001 0.000412 9.785308 20.175544 -13.724434 -25.701794 58.875350 0.000027 5.329086 -0.000009 -0.000003 0.000000 -0.000000 15.588454 0.171991 -9.565318 12.739852 1.391713 1.569821 -18.171035 3.334300 3.120141 -8.421143 -0.000002 -0.000001 0.000000 0.000000 -0.000000 -23.626932 4.250793 -7.704993 14.378262 -9.409944 -0.145688 1.016933 -0.348210 6.388340 3.400395 0.000004 0.000000 -0.000001 -0.000000 0.000000 
227.064743 94.035622 -78.396149 -175.709171 0.647048 183.986595 10.336667 -9.796639 -1.126620 1.530985 -1.650766 0.092247 1.541096 -1.643034 0.118066 0.599373 -2.499857 -1.069978 -4.312462 -3.231812 -1.235880 -0.000000 0.000001 0.000000 1.004329 4.577840 -15.592770 10.275342 -19.357451 -26.148225 0.000031 -123.971786 0.000014 -0.000002 0.000000 -0.000002 0.007553 9.627867 20.320144 -14.057910 -25.505893 58.547207 0.000015 5.148582 0.000001 0.000002 0.000000 -0.000000 15.850957 0.667593 -8.659216 14.771527 0.632654 1.552737 -18.776911 3.340434 3.110421 -10.730707 0.000003 0.000001 0.000000 -0.000000 -0.000000 -21.745861 4.130444 -7.580890 12.029845 -8.780807 0.155644 6.214176 -0.037147 6.073227 1.447459 0.000004 -0.000002 0.000000 0.000000 0.000000 
